<svg xmlns="http://www.w3.org/2000/svg" viewBox="0 0 256 256" role="img" aria-label="MuseEgg Core">
  <defs>
    <radialGradient id="shell" cx="45%" cy="35%" r="68%">
      <stop offset="0%" stop-color="#fff7d6"/>
      <stop offset="38%" stop-color="#ffe29a"/>
      <stop offset="72%" stop-color="#ff8ab3"/>
      <stop offset="100%" stop-color="#7c5cff"/>
    </radialGradient>
    <linearGradient id="halo" x1="42" y1="38" x2="214" y2="220">
      <stop offset="0%" stop-color="#6ee7f9"/>
      <stop offset="52%" stop-color="#b8a5ff"/>
      <stop offset="100%" stop-color="#ff8ab3"/>
    </linearGradient>
    <filter id="glow" x="-30%" y="-30%" width="160%" height="160%">
      <feGaussianBlur stdDeviation="8" result="blur"/>
      <feMerge>
        <feMergeNode in="blur"/>
        <feMergeNode in="SourceGraphic"/>
      </feMerge>
    </filter>
  </defs>
  <rect width="256" height="256" rx="54" fill="#10131c"/>
  <circle cx="128" cy="128" r="92" fill="none" stroke="url(#halo)" stroke-width="12" opacity=".82"/>
  <path
    d="M128 38c42 0 76 49 76 98 0 48-30 82-76 82s-76-34-76-82c0-49 34-98 76-98z"
    fill="url(#shell)"
    filter="url(#glow)"
  />
  <path
    d="M92 125c9-24 27-36 52-36 14 0 27 4 39 12-9 3-18 9-27 18-13 13-24 20-39 20-10 0-18-4-25-14z"
    fill="#10131c"
    opacity=".82"
  />
  <path d="M86 80l9 19 19 9-19 9-9 19-9-19-19-9 19-9 9-19z" fill="#f7fbff" opacity=".9"/>
  <path d="M190 54l5 11 11 5-11 5-5 11-5-11-11-5 11-5 5-11z" fill="#6ee7f9"/>
  <path d="M176 174l7 15 15 7-15 7-7 15-7-15-15-7 15-7 7-15z" fill="#f7fbff" opacity=".78"/>
</svg>
